<svg xmlns="http://www.w3.org/2000/svg" width="141" height="23" viewBox="0 0 141 23">
    <defs>
        <path id="a" d="M.454 11.386c0 5.513 3.643 10.126 8.463 11.164v-4.706c-2.485-.945-4.242-3.483-4.242-6.458 0-2.998 1.757-5.513 4.242-6.458V.22C4.097 1.26.454 5.873.454 11.386z"/>
        <path id="b" d="M.288 4.928c2.486.945 4.243 3.483 4.243 6.458 0 2.999-1.757 5.513-4.243 6.458v4.706c4.821-1.038 8.464-5.65 8.464-11.164C8.752 5.873 5.109 1.26.288.221v4.707z"/>
    </defs>
    <g fill="none" fill-rule="evenodd">
        <path fill="#FFF" d="M8.918 5.084c-2.486.945-4.243 3.46-4.243 6.458 0 2.975 1.757 5.513 4.243 6.459v4.705C4.098 21.668.454 17.056.454 11.542.454 6.03 4.097 1.417 8.918.378v4.706zM13.175 18c2.486-.945 4.244-3.46 4.244-6.458 0-2.975-1.758-5.513-4.244-6.458V.378c4.82 1.039 8.464 5.651 8.464 11.164s-3.643 10.126-8.464 11.164v-4.705z"/>
        <g fill="#FFF">
            <path d="M34.254 15.743a1.967 1.967 0 0 0-.66-.588c-.268-.149-.593-.223-.973-.223-.194 0-.391.03-.593.092-.201.06-.383.154-.547.28a1.448 1.448 0 0 0-.398.473c-.1.191-.15.416-.15.674 0 .26.048.473.145.64.096.168.224.31.384.428.16.119.343.215.547.291.205.077.418.153.641.23.275.09.551.189.83.297.28.106.531.245.755.416.223.171.404.388.545.651.141.263.213.596.213 1s-.076.751-.226 1.045a2.196 2.196 0 0 1-.588.725 2.44 2.44 0 0 1-.825.423c-.31.091-.621.137-.934.137a3.51 3.51 0 0 1-.716-.074 3.18 3.18 0 0 1-.682-.223 2.784 2.784 0 0 1-1.096-.903l.693-.525c.172.29.412.531.721.726.31.194.674.29 1.091.29.201 0 .407-.032.615-.096.21-.065.397-.164.565-.297.168-.134.306-.298.414-.491.108-.195.162-.421.162-.68 0-.282-.054-.516-.162-.703a1.47 1.47 0 0 0-.43-.468 2.617 2.617 0 0 0-.616-.314 24.203 24.203 0 0 0-.727-.252 9.335 9.335 0 0 1-.771-.285 2.587 2.587 0 0 1-.683-.417 1.953 1.953 0 0 1-.486-.634c-.123-.251-.185-.56-.185-.925 0-.389.076-.724.229-1.006.154-.28.352-.514.599-.696.246-.182.518-.316.817-.4.297-.083.592-.125.883-.125.537 0 .995.096 1.375.29.38.195.668.425.862.691l-.638.526zM42.738 22.528h-.805v-7.355h-2.652v-.732h6.107v.732h-2.65zM52.58 22.734c-.597 0-1.086-.105-1.466-.314a2.623 2.623 0 0 1-.905-.794 2.94 2.94 0 0 1-.464-1.045 4.787 4.787 0 0 1-.13-1.069v-5.07h.806v4.98c0 .327.037.645.112.953.074.309.196.583.363.823.168.24.39.433.666.582.276.149.615.223 1.018.223.402 0 .742-.074 1.018-.223.275-.149.497-.343.665-.582.167-.24.29-.514.364-.823.074-.308.112-.626.112-.954v-4.98h.805v5.071c0 .336-.043.692-.13 1.069-.085.377-.24.724-.463 1.045-.224.32-.528.585-.911.794-.385.21-.871.314-1.46.314M60.7 21.797h1.6c.595 0 1.116-.095 1.56-.286.443-.19.81-.44 1.102-.747.291-.31.509-.66.653-1.057.147-.396.219-.804.219-1.223 0-.419-.072-.826-.219-1.221a3.044 3.044 0 0 0-.653-1.057 3.253 3.253 0 0 0-1.102-.748c-.444-.19-.965-.286-1.56-.286h-1.6v6.625zm-.805-7.356h2.628c.493 0 .986.084 1.482.251.497.168.943.421 1.343.76.398.339.72.762.967 1.268.246.506.37 1.095.37 1.764 0 .679-.124 1.268-.37 1.77a3.86 3.86 0 0 1-.967 1.263c-.4.339-.846.592-1.343.76-.496.167-.99.25-1.482.25h-2.628v-8.086zM70.912 22.528h.805v-8.087h-.805zM83.348 18.49c0-.471-.075-.92-.224-1.345a3.382 3.382 0 0 0-.648-1.124 3.11 3.11 0 0 0-2.404-1.054 3.11 3.11 0 0 0-2.405 1.054 3.397 3.397 0 0 0-.65 1.124c-.149.425-.223.874-.223 1.345 0 .472.074.92.223 1.347.15.425.366.798.65 1.117.283.32.628.573 1.034.764a3.2 3.2 0 0 0 1.37.285c.507 0 .963-.095 1.37-.285a3.15 3.15 0 0 0 1.035-.764c.283-.32.5-.692.648-1.117.149-.427.224-.875.224-1.347m.85-.005c0 .617-.105 1.184-.313 1.701a3.967 3.967 0 0 1-2.175 2.227 4.15 4.15 0 0 1-1.638.32c-.59 0-1.136-.105-1.64-.32a3.99 3.99 0 0 1-1.309-.884 4.076 4.076 0 0 1-.866-1.343 4.5 4.5 0 0 1-.313-1.701c0-.617.104-1.185.313-1.703.208-.518.498-.964.866-1.341.37-.377.807-.672 1.31-.886a4.162 4.162 0 0 1 1.639-.32c.588 0 1.134.107 1.638.32a3.981 3.981 0 0 1 2.175 2.227c.208.518.313 1.086.313 1.703M35.007 10.854c-.703 0-1.365-.13-1.984-.388a4.837 4.837 0 0 1-1.612-1.086 5.217 5.217 0 0 1-1.084-1.653 5.312 5.312 0 0 1-.401-2.077V5.62a5.321 5.321 0 0 1 1.478-3.717A4.95 4.95 0 0 1 33.044.79 5.276 5.276 0 0 1 35.12.387c.507 0 .967.05 1.38.151.413.101.79.245 1.133.432.342.187.652.41.929.669.277.258.524.54.739.847l-2.055 1.625a3.584 3.584 0 0 0-.929-.863c-.339-.21-.746-.316-1.225-.316-.347 0-.664.07-.95.208-.287.14-.533.329-.739.569-.207.239-.369.522-.486.847a3.033 3.033 0 0 0-.176 1.036v.029c0 .374.059.725.176 1.056.117.33.28.616.486.855.206.24.452.43.739.569.286.14.603.208.95.208.253 0 .486-.029.697-.086.211-.058.403-.142.577-.252.173-.11.338-.24.492-.388.155-.149.308-.314.458-.496l2.055 1.495c-.235.326-.49.628-.767.905a4.399 4.399 0 0 1-.943.72 4.89 4.89 0 0 1-1.182.474 5.797 5.797 0 0 1-1.472.173M46.08 8.338c.375 0 .719-.072 1.03-.216.31-.143.573-.338.79-.582a2.72 2.72 0 0 0 .508-.856c.122-.326.183-.67.183-1.035v-.028c0-.364-.061-.71-.183-1.036a2.674 2.674 0 0 0-.522-.862 2.57 2.57 0 0 0-.805-.597 2.368 2.368 0 0 0-1.03-.223c-.377 0-.718.072-1.024.216a2.479 2.479 0 0 0-1.299 1.438 3.03 3.03 0 0 0-.176 1.035v.029c0 .363.061.709.184 1.035.122.326.294.613.515.862.221.25.486.448.798.597.31.149.653.223 1.03.223m-.021 2.516a5.37 5.37 0 0 1-2.111-.41A5.182 5.182 0 0 1 42.27 9.33a5.152 5.152 0 0 1-1.105-1.653 5.15 5.15 0 0 1-.4-2.028v-.028c0-.719.133-1.397.4-2.035a5.111 5.111 0 0 1 1.12-1.668 5.309 5.309 0 0 1 1.689-1.12 5.37 5.37 0 0 1 2.112-.41c.76 0 1.463.136 2.11.41a5.203 5.203 0 0 1 1.676 1.113 5.16 5.16 0 0 1 1.105 1.654c.267.632.4 1.308.4 2.027v.029a5.22 5.22 0 0 1-.4 2.034 5.101 5.101 0 0 1-1.12 1.668 5.305 5.305 0 0 1-1.689 1.12c-.647.274-1.35.411-2.111.411M53.364.589h2.553l4.064 5.32V.588h2.688v10.064H60.27l-4.217-5.521v5.52h-2.689zM69.72 10.854a5.1 5.1 0 0 1-1.984-.388 4.837 4.837 0 0 1-1.612-1.086 5.23 5.23 0 0 1-1.084-1.653 5.325 5.325 0 0 1-.4-2.077V5.62c0-.729.13-1.411.393-2.05a5.254 5.254 0 0 1 1.084-1.667A4.954 4.954 0 0 1 67.757.79a5.273 5.273 0 0 1 2.076-.403c.507 0 .967.05 1.38.151.413.101.79.245 1.133.432.342.187.652.41.928.669.278.258.524.54.74.847L71.96 4.111a3.575 3.575 0 0 0-.93-.863c-.337-.21-.745-.316-1.224-.316-.347 0-.664.07-.95.208a2.28 2.28 0 0 0-.74.569c-.206.239-.368.522-.485.847a3.051 3.051 0 0 0-.176 1.036v.029c0 .374.06.725.176 1.056.117.33.279.616.486.855.206.24.452.43.738.569.287.14.604.208.95.208.255 0 .487-.029.697-.086a2.1 2.1 0 0 0 .578-.252c.174-.11.337-.24.493-.388.154-.149.308-.314.458-.496l2.055 1.495a7.487 7.487 0 0 1-.767.905 4.399 4.399 0 0 1-.943.72c-.353.2-.746.359-1.184.474a5.791 5.791 0 0 1-1.47.173M75.816.589h7.911V2.96h-5.222v1.524h4.73v2.2h-4.73V8.28h5.292v2.373h-7.98zM89.794 5.592c.488 0 .87-.118 1.147-.354s.416-.557.416-.961v-.03c0-.433-.139-.763-.416-.99-.277-.226-.664-.34-1.16-.34h-1.282v2.675h1.295zM85.768.589h4.224a5.63 5.63 0 0 1 1.688.237c.507.158.939.388 1.295.69.357.302.631.674.824 1.114.192.44.288.94.288 1.495v.03c0 .594-.105 1.115-.316 1.566-.211.451-.505.83-.88 1.136a3.78 3.78 0 0 1-1.344.69 5.994 5.994 0 0 1-1.696.23h-1.352v2.876h-2.731V.589zM98.212 3.033h-2.955V.589h8.642v2.444h-2.955v7.62h-2.732zM110.093 10.84c-.705 0-1.338-.092-1.9-.274a3.658 3.658 0 0 1-1.436-.84c-.394-.38-.696-.859-.909-1.438-.21-.58-.316-1.263-.316-2.049V.59h2.788v5.592c0 .729.163 1.268.488 1.617.326.35.764.525 1.313.525.55 0 .987-.167 1.313-.502.326-.336.49-.858.49-1.568V.589h2.786v5.578c0 .815-.11 1.517-.33 2.106-.221.589-.531 1.074-.93 1.452a3.718 3.718 0 0 1-1.45.841 6.236 6.236 0 0 1-1.907.273M122.692 6.699l-1.099-2.86-1.112 2.86h2.21zM120.299.517h2.632l4.195 10.135h-2.929l-.718-1.796h-3.8l-.703 1.796h-2.872L120.3.517zM128.646.589h2.731v7.62h4.772v2.444h-7.503zM137.612 10.652h2.788V7.85h-2.788z"/>
        </g>
    </g>
</svg>
