<svg xmlns="http://www.w3.org/2000/svg" width="147" height="24" viewBox="0 0 147 24">
    <defs>
        <path id="a" d="M.473 11.582c0 5.608 3.79 10.3 8.808 11.357v-4.787c-2.586-.962-4.415-3.543-4.415-6.57 0-3.05 1.829-5.608 4.415-6.57V.226C4.264 1.281.473 5.975.473 11.582z"/>
        <path id="b" d="M.3 5.013c2.587.961 4.416 3.543 4.416 6.57 0 3.05-1.83 5.607-4.416 6.569v4.787c5.018-1.057 8.809-5.749 8.809-11.357S5.318 1.282.299.225v4.788z"/>
    </defs>
    <g fill="none" fill-rule="evenodd">
        <path fill="#FFF" d="M9.281 5.172c-2.587.961-4.416 3.519-4.416 6.57 0 3.026 1.83 5.607 4.416 6.569v4.786C4.264 22.041.472 17.35.472 11.741S4.264 1.441 9.282.385v4.787zM13.713 18.31c2.587-.96 4.416-3.519 4.416-6.569 0-3.026-1.83-5.608-4.416-6.57V.386c5.017 1.056 8.809 5.748 8.809 11.356s-3.792 10.3-8.81 11.356v-4.786z"/>
        <g fill="#FFF">
            <path d="M35.651 16.014a2.033 2.033 0 0 0-.686-.598c-.28-.151-.618-.226-1.013-.226-.202 0-.408.03-.618.093a1.79 1.79 0 0 0-.57.284c-.17.128-.308.29-.413.482a1.432 1.432 0 0 0-.157.686c0 .264.05.48.152.65.1.171.232.316.399.436.166.12.357.219.57.296.212.078.435.156.667.233.286.093.574.193.864.303.291.108.552.25.785.423.232.174.421.395.567.663.148.267.222.606.222 1.016 0 .411-.079.765-.235 1.064a2.245 2.245 0 0 1-.612.737 2.56 2.56 0 0 1-.859.43 3.49 3.49 0 0 1-.972.14c-.248 0-.497-.025-.745-.076a3.365 3.365 0 0 1-.71-.227 2.909 2.909 0 0 1-.629-.383 2.79 2.79 0 0 1-.512-.535l.722-.534c.179.295.429.54.75.738.322.198.701.296 1.136.296.209 0 .423-.033.64-.098.218-.066.413-.167.588-.303.175-.135.318-.302.43-.499.113-.198.17-.428.17-.692 0-.286-.057-.524-.17-.714a1.508 1.508 0 0 0-.447-.477 2.748 2.748 0 0 0-.64-.319c-.241-.086-.494-.17-.758-.256a9.86 9.86 0 0 1-.802-.29 2.705 2.705 0 0 1-.711-.425 1.993 1.993 0 0 1-.506-.644c-.128-.256-.192-.57-.192-.941 0-.396.08-.737.238-1.023.16-.286.367-.523.623-.709.256-.185.54-.321.85-.406.31-.085.617-.128.92-.128.56 0 1.036.098 1.43.296.397.198.696.432.898.703l-.664.534zM44.481 22.916h-.838v-7.482h-2.76v-.744h6.357v.744H44.48zM54.724 23.126c-.62 0-1.13-.107-1.525-.32a2.711 2.711 0 0 1-.943-.807 2.957 2.957 0 0 1-.483-1.063 4.765 4.765 0 0 1-.134-1.087V14.69h.838v5.066c0 .333.039.657.117.97.077.314.204.593.378.837.175.244.405.441.693.592.287.152.64.227 1.06.227.417 0 .772-.075 1.059-.227.286-.15.517-.348.693-.592.173-.244.3-.523.377-.837.078-.313.117-.637.117-.97V14.69h.838v5.159c0 .34-.045.703-.134 1.087a2.97 2.97 0 0 1-.483 1.063c-.233.325-.549.594-.948.807-.401.213-.907.32-1.52.32M63.176 22.173h1.664c.62 0 1.163-.097 1.624-.29a3.39 3.39 0 0 0 1.147-.762c.303-.314.53-.671.68-1.075.153-.402.228-.817.228-1.243 0-.426-.075-.84-.228-1.243a3.086 3.086 0 0 0-.68-1.075 3.39 3.39 0 0 0-1.147-.76c-.461-.194-1.003-.291-1.624-.291h-1.664v6.739zm-.838-7.483h2.735a4.9 4.9 0 0 1 1.543.256c.516.17.981.428 1.397.772.414.345.75.775 1.007 1.29.256.515.385 1.114.385 1.795 0 .69-.129 1.29-.385 1.801-.257.512-.593.94-1.007 1.284-.416.345-.88.602-1.397.773a4.9 4.9 0 0 1-1.543.255h-2.735V14.69zM73.805 22.916h.837V14.69h-.837zM86.747 18.809c0-.48-.078-.936-.232-1.369a3.423 3.423 0 0 0-.675-1.143 3.233 3.233 0 0 0-1.077-.782 3.389 3.389 0 0 0-1.426-.29c-.528 0-1.003.096-1.426.29a3.233 3.233 0 0 0-1.077.782c-.295.33-.52.71-.676 1.143a4.02 4.02 0 0 0-.232 1.369c0 .48.077.935.232 1.37.157.432.38.811.676 1.136.295.325.654.583 1.077.777.423.193.898.29 1.426.29a3.4 3.4 0 0 0 1.426-.29 3.274 3.274 0 0 0 1.077-.777c.294-.325.52-.704.675-1.137.154-.434.232-.89.232-1.37m.886-.005c0 .628-.11 1.204-.327 1.731a4.115 4.115 0 0 1-.903 1.366 4.135 4.135 0 0 1-1.36.9 4.407 4.407 0 0 1-1.706.325 4.405 4.405 0 0 1-1.705-.325 4.158 4.158 0 0 1-1.363-.9 4.137 4.137 0 0 1-.902-1.366 4.486 4.486 0 0 1-.326-1.73c0-.628.108-1.206.326-1.732.217-.527.518-.982.902-1.365.384-.384.84-.684 1.363-.901a4.42 4.42 0 0 1 1.705-.325c.613 0 1.181.108 1.705.325a4.15 4.15 0 0 1 1.361.9c.385.384.686.839.903 1.366.217.526.327 1.104.327 1.731M36.435 11.04a5.408 5.408 0 0 1-2.065-.394 5.042 5.042 0 0 1-1.678-1.105 5.298 5.298 0 0 1-1.546-3.794v-.03c0-.74.137-1.435.41-2.084a5.16 5.16 0 0 1 2.835-2.83c.66-.272 1.38-.409 2.162-.409a6.21 6.21 0 0 1 1.436.154c.43.102.822.249 1.18.438.355.19.678.418.966.68.288.264.545.551.769.863l-2.14 1.653a3.7 3.7 0 0 0-.966-.878c-.352-.214-.777-.321-1.275-.321a2.286 2.286 0 0 0-1.757.79c-.216.243-.385.53-.506.862a3.022 3.022 0 0 0-.183 1.053v.03c0 .38.06.738.183 1.074.121.336.29.627.506.87.213.244.47.437.768.578.298.142.628.212.99.212.263 0 .505-.029.724-.087.22-.06.42-.144.6-.257.182-.112.353-.243.514-.395.16-.15.32-.319.476-.504l2.14 1.521c-.245.332-.511.639-.8.92a4.569 4.569 0 0 1-.98.732 5.157 5.157 0 0 1-1.232.483 6.166 6.166 0 0 1-1.531.176M47.959 8.482a2.57 2.57 0 0 0 1.072-.22c.323-.146.597-.343.823-.592.225-.25.4-.539.528-.87.127-.332.191-.683.191-1.053v-.03c0-.37-.064-.721-.19-1.053a2.67 2.67 0 0 0-1.38-1.485 2.512 2.512 0 0 0-1.074-.226 2.522 2.522 0 0 0-1.888.812c-.23.249-.407.539-.53.87a3.02 3.02 0 0 0-.183 1.053v.03c0 .37.064.72.192 1.052.127.332.306.624.536.878.23.253.506.456.83.607.323.151.68.227 1.073.227m-.023 2.56c-.79 0-1.524-.14-2.197-.418a5.404 5.404 0 0 1-1.744-1.133 5.235 5.235 0 0 1-1.15-1.682 5.136 5.136 0 0 1-.417-2.062v-.03c0-.73.139-1.42.417-2.07a5.194 5.194 0 0 1 1.165-1.696 5.537 5.537 0 0 1 1.758-1.14 5.702 5.702 0 0 1 2.198-.417c.791 0 1.523.14 2.197.417a5.426 5.426 0 0 1 1.744 1.133 5.242 5.242 0 0 1 1.15 1.683c.278.642.417 1.33.417 2.061v.03a5.205 5.205 0 0 1-1.582 3.765 5.533 5.533 0 0 1-1.758 1.14 5.704 5.704 0 0 1-2.198.418M55.54.599h2.657l4.23 5.411V.6h2.798v10.237h-2.496l-4.39-5.616v5.616h-2.798zM72.564 11.04a5.415 5.415 0 0 1-2.065-.394 5.042 5.042 0 0 1-1.679-1.105 5.31 5.31 0 0 1-1.544-3.794v-.03a5.32 5.32 0 0 1 1.537-3.78A5.163 5.163 0 0 1 70.521.804a5.599 5.599 0 0 1 2.16-.41c.528 0 1.007.051 1.437.154.429.102.822.249 1.18.438.355.19.677.418.965.68.289.264.545.551.77.863l-2.139 1.653a3.69 3.69 0 0 0-.967-.878c-.352-.214-.777-.321-1.275-.321a2.286 2.286 0 0 0-1.758.79c-.216.243-.384.53-.506.862a3.04 3.04 0 0 0-.183 1.053v.03c0 .38.062.738.183 1.074.122.336.29.627.506.87.214.244.47.437.768.578.299.142.628.212.99.212.264 0 .505-.029.725-.087.22-.06.42-.144.601-.257.18-.112.351-.243.513-.395.16-.15.32-.319.476-.504l2.14 1.521a7.664 7.664 0 0 1-.8.92 4.569 4.569 0 0 1-.98.732 5.15 5.15 0 0 1-1.232.483 6.16 6.16 0 0 1-1.53.176M78.908.599h8.234v2.413h-5.435v1.55h4.922V6.8h-4.922v1.623h5.508v2.413h-8.307zM93.456 5.688c.508 0 .906-.12 1.195-.36.287-.24.432-.566.432-.977v-.03c0-.441-.145-.777-.432-1.007-.29-.231-.692-.346-1.21-.346h-1.333v2.72h1.348zm-4.19-5.09h4.396c.644 0 1.23.081 1.757.243.528.16.978.394 1.348.701.371.308.657.686.857 1.134.2.448.3.955.3 1.52v.03c0 .604-.109 1.135-.328 1.593-.22.46-.526.844-.916 1.156-.39.312-.858.546-1.4.702a6.373 6.373 0 0 1-1.765.234h-1.407v2.925h-2.842V.6zM102.218 3.085h-3.076V.599h8.995v2.486h-3.076v7.75h-2.843zM114.583 11.026c-.733 0-1.392-.093-1.977-.278a3.827 3.827 0 0 1-1.495-.855c-.41-.385-.725-.873-.946-1.463-.219-.59-.329-1.284-.329-2.083V.599h2.901v5.689c0 .74.17 1.29.51 1.645.338.356.794.534 1.365.534.573 0 1.028-.17 1.367-.511.339-.342.51-.873.51-1.595V.599h2.9v5.674c0 .829-.115 1.543-.345 2.142-.23.6-.552 1.093-.967 1.478a3.89 3.89 0 0 1-1.508.855c-.591.185-1.253.278-1.986.278M127.696 6.814l-1.143-2.91-1.158 2.91h2.3zM125.205.526h2.74l4.366 10.31h-3.048l-.747-1.828h-3.956l-.732 1.827h-2.988l4.365-10.31zM133.893.599h2.843v7.75h4.965v2.487h-7.808zM143.225 10.836h2.902V7.984h-2.902z"/>
        </g>
    </g>
</svg>
